<svg width="21" height="21" viewBox="0 0 21 21" fill="none" xmlns="http://www.w3.org/2000/svg">
<path d="M9.54184 2.76238C9.75959 2.09224 10.7077 2.09224 10.9254 2.76238L12.3566 7.1672C12.454 7.4669 12.7333 7.66981 13.0484 7.66981H17.6799C18.3845 7.66981 18.6775 8.57148 18.1074 8.98565L14.3605 11.708C14.1055 11.8932 13.9989 12.2215 14.0962 12.5212L15.5275 16.926C15.7452 17.5962 14.9782 18.1534 14.4081 17.7393L10.6612 15.0169C10.4062 14.8317 10.061 14.8317 9.80608 15.0169L6.05912 17.7393C5.48906 18.1534 4.72205 17.5962 4.93979 16.926L6.371 12.5212C6.46838 12.2215 6.36171 11.8932 6.10677 11.708L2.35981 8.98565C1.78975 8.57148 2.08272 7.66981 2.78735 7.66981H7.41885C7.73397 7.66981 8.01325 7.4669 8.11063 7.1672L9.54184 2.76238Z" fill="white"/>
</svg>
