<svg width="25" height="24" viewBox="0 0 25 24" fill="none" xmlns="http://www.w3.org/2000/svg">
<path d="M20.5189 4.88128L19.783 4.14533C19.575 3.93734 19.191 3.96935 18.951 4.2573L16.3908 6.80126C15.2388 6.30532 13.9749 6.06532 12.6468 6.06532C8.6947 6.08126 5.27092 8.38523 3.6228 11.6974C3.52677 11.9054 3.52677 12.1614 3.6228 12.3373C4.39073 13.9054 5.54281 15.2014 6.98281 16.1773L4.88682 18.3053C4.64682 18.5453 4.61481 18.9293 4.77485 19.1373L5.5108 19.8732C5.71879 20.0812 6.10277 20.0492 6.34277 19.7613L20.3907 5.71339C20.6947 5.47352 20.7267 5.08956 20.5187 4.88155L20.5189 4.88128ZM13.4948 9.71316C13.2228 9.64914 12.9349 9.56919 12.6628 9.56919C11.3028 9.56919 10.2149 10.6572 10.2149 12.0171C10.2149 12.2891 10.2789 12.5771 10.3589 12.8491L9.28675 13.9051C8.9668 13.3452 8.79081 12.7211 8.79081 12.0172C8.79081 9.88918 10.5028 8.17715 12.6308 8.17715C13.3349 8.17715 13.9588 8.35314 14.5188 8.6731L13.4948 9.71316Z" fill="white"/>
<path d="M21.6709 11.6974C21.1109 10.5773 20.3749 9.56939 19.463 8.75336L16.4869 11.6974V12.0173C16.4869 14.1453 14.7749 15.8573 12.6469 15.8573H12.3269L10.439 17.7453C11.143 17.8893 11.879 17.9853 12.599 17.9853C16.5511 17.9853 19.9749 15.6813 21.623 12.3532C21.767 12.1291 21.767 11.9052 21.6709 11.6972L21.6709 11.6974Z" fill="white"/>
</svg>
